<svg width="133" height="28" viewBox="0 0 133 28" fill="none" xmlns="http://www.w3.org/2000/svg">
<path d="M10.73 0.209998C13.542 0.209998 15.9993 0.779999 18.102 1.92C20.23 3.03466 21.864 4.60533 23.004 6.632C24.144 8.65867 24.714 10.9767 24.714 13.586C24.714 16.17 24.1313 18.4753 22.966 20.502C21.826 22.5287 20.192 24.1247 18.064 25.29C15.9613 26.43 13.5167 27 10.73 27H0.128V0.209998H10.73ZM10.16 20.426C12.3387 20.426 14.0487 19.8307 15.29 18.64C16.5313 17.4493 17.152 15.7647 17.152 13.586C17.152 11.382 16.5313 9.68467 15.29 8.494C14.0487 7.278 12.3387 6.67 10.16 6.67H7.576V20.426H10.16ZM37.9894 27.266C35.8614 27.266 33.9487 26.8227 32.2514 25.936C30.5794 25.0493 29.262 23.7827 28.2994 22.136C27.3367 20.4893 26.8554 18.5513 26.8554 16.322C26.8554 14.118 27.3367 12.1927 28.2994 10.546C29.2874 8.89933 30.6174 7.63267 32.2894 6.746C33.9867 5.85933 35.8994 5.416 38.0274 5.416C40.1554 5.416 42.0554 5.85933 43.7274 6.746C45.4247 7.63267 46.7547 8.89933 47.7174 10.546C48.7054 12.1927 49.1994 14.118 49.1994 16.322C49.1994 18.526 48.7054 20.464 47.7174 22.136C46.7547 23.7827 45.4247 25.0493 43.7274 25.936C42.03 26.8227 40.1174 27.266 37.9894 27.266ZM37.9894 20.806C39.028 20.806 39.8894 20.426 40.5734 19.666C41.2827 18.8807 41.6374 17.766 41.6374 16.322C41.6374 14.878 41.2827 13.776 40.5734 13.016C39.8894 12.256 39.0407 11.876 38.0274 11.876C37.014 11.876 36.1654 12.256 35.4814 13.016C34.7974 13.776 34.4554 14.878 34.4554 16.322C34.4554 17.7913 34.7847 18.906 35.4434 19.666C36.102 20.426 36.9507 20.806 37.9894 20.806ZM62.1476 27.266C60.0196 27.266 58.1069 26.8227 56.4096 25.936C54.7376 25.0493 53.4202 23.7827 52.4576 22.136C51.4949 20.4893 51.0136 18.5513 51.0136 16.322C51.0136 14.118 51.4949 12.1927 52.4576 10.546C53.4456 8.89933 54.7756 7.63267 56.4476 6.746C58.1449 5.85933 60.0576 5.416 62.1856 5.416C64.3136 5.416 66.2136 5.85933 67.8856 6.746C69.5829 7.63267 70.9129 8.89933 71.8756 10.546C72.8636 12.1927 73.3576 14.118 73.3576 16.322C73.3576 18.526 72.8636 20.464 71.8756 22.136C70.9129 23.7827 69.5829 25.0493 67.8856 25.936C66.1882 26.8227 64.2756 27.266 62.1476 27.266ZM62.1476 20.806C63.1862 20.806 64.0476 20.426 64.7316 19.666C65.4409 18.8807 65.7956 17.766 65.7956 16.322C65.7956 14.878 65.4409 13.776 64.7316 13.016C64.0476 12.256 63.1989 11.876 62.1856 11.876C61.1722 11.876 60.3236 12.256 59.6396 13.016C58.9556 13.776 58.6136 14.878 58.6136 16.322C58.6136 17.7913 58.9429 18.906 59.6016 19.666C60.2602 20.426 61.1089 20.806 62.1476 20.806ZM107.662 0.209998V27H100.214V12.218L95.1598 27H88.9278L83.8358 12.104V27H76.3878V0.209998H85.3938L92.1198 17.614L98.6938 0.209998H107.662ZM132.269 16.094C132.269 16.6767 132.231 17.2593 132.155 17.842H118.057C118.133 19.0073 118.45 19.8813 119.007 20.464C119.59 21.0213 120.325 21.3 121.211 21.3C122.453 21.3 123.339 20.7427 123.871 19.628H131.813C131.484 21.0973 130.838 22.4147 129.875 23.58C128.938 24.72 127.747 25.6193 126.303 26.278C124.859 26.9367 123.263 27.266 121.515 27.266C119.413 27.266 117.538 26.8227 115.891 25.936C114.27 25.0493 112.991 23.7827 112.053 22.136C111.141 20.4893 110.685 18.5513 110.685 16.322C110.685 14.0927 111.141 12.1673 112.053 10.546C112.965 8.89933 114.232 7.63267 115.853 6.746C117.5 5.85933 119.387 5.416 121.515 5.416C123.618 5.416 125.48 5.84667 127.101 6.708C128.723 7.56933 129.989 8.81067 130.901 10.432C131.813 12.028 132.269 13.9153 132.269 16.094ZM124.669 14.232C124.669 13.32 124.365 12.6107 123.757 12.104C123.149 11.572 122.389 11.306 121.477 11.306C120.565 11.306 119.818 11.5593 119.235 12.066C118.653 12.5473 118.273 13.2693 118.095 14.232H124.669Z" fill="white"/>
</svg>
